<svg width="40" height="46" viewBox="0 0 40 46" fill="none" xmlns="http://www.w3.org/2000/svg">
<path d="M0 15.7266H7.81251V41.3615C7.81251 43.6496 6.06351 45.5044 3.90625 45.5044C1.74899 45.5044 0 43.6496 0 41.3615V15.7266Z" fill="white"/>
<path d="M35.7437 9.83477e-07C37.9217 9.83477e-07 39.6877 1.87247 39.6877 4.18228C39.6877 6.49208 37.9217 8.36455 35.7437 8.36455H3.94302C1.76596 8.36455 0 6.49208 0 4.18227C0 1.87247 1.76596 0 3.94302 0L35.7437 9.83477e-07Z" fill="white"/>
<path d="M21.994 15.7266C24.172 15.7266 25.937 17.5991 25.937 19.9089C25.937 22.2187 24.172 24.0912 21.994 24.0912H3.94302C1.76596 24.0912 0 22.2187 0 19.9089C0 17.5991 1.76596 15.7266 3.94302 15.7266H21.994Z" fill="white"/>
<path d="M6.25039 41.6558C6.25039 43.0417 5.20098 44.1652 3.90644 44.1652C2.61189 44.1652 1.5625 43.0417 1.5625 41.6558C1.5625 40.27 2.61189 39.1465 3.90644 39.1465C5.20098 39.1465 6.25039 40.27 6.25039 41.6558Z" fill="#000606"/>
</svg>
