<svg width="175px" height="46px" viewBox="0 0 175 46" fill="none" xmlns="http://www.w3.org/2000/svg" transform="rotate(0) scale(1, 1)">
<path d="M34.3756 0C34.4041 0.230302 34.4327 0.489391 34.4327 0.719693C34.4327 2.84998 34.4327 4.98027 34.4327 7.11056C34.4327 7.34087 34.4327 7.59996 34.4327 7.88783C34.1186 7.88783 33.8617 7.88783 33.6332 7.88783C29.6932 7.88783 25.7531 7.88783 21.8416 7.88783C21.2706 7.88783 21.1278 8.03177 21.1278 8.60753C21.1564 20.7559 21.1278 32.9044 21.1278 45.0528C21.1278 45.3119 21.1278 45.5709 21.1278 45.8588C18.5011 45.8588 15.9601 45.8588 13.3334 45.8588C13.3334 33.221 13.3334 20.5832 13.3334 7.91662C8.85085 7.91662 4.48253 7.91662 0.0571023 7.91662C0.0285512 7.74389 0 7.62874 0 7.51359C0 5.153 0 2.76362 0 0.403028C0 0.287877 0.0285512 0.172726 0.0571023 0.0287877C11.5061 -2.14485e-09 22.9551 0 34.3756 0Z" fill="#ffffff"/>
<path d="M70.7076 45.0988C68.046 45.0988 65.5275 45.0988 62.9232 45.0988C62.9232 44.3233 62.9232 43.5478 62.9232 42.6574C57.6573 46.1903 52.1338 46.9946 46.3241 44.7255C42.804 43.3468 40.0852 40.9627 38.0819 37.7458C34.1038 31.3406 34.8193 22.896 39.8849 17.2089C42.804 13.9345 46.4672 12.01 50.846 11.5217C55.1674 11.0622 59.1455 12.1249 62.866 14.7387C62.866 14.0206 62.8946 13.4462 62.866 12.8717C62.8373 12.4122 62.9804 12.2398 63.467 12.2398C65.6706 12.2685 67.8457 12.2685 70.0493 12.2398C70.5645 12.2398 70.7076 12.3834 70.7076 12.9004C70.679 16.4908 70.7076 20.0812 70.7076 23.6715C70.7076 30.5363 70.7076 37.3724 70.7076 44.2372C70.7076 44.4957 70.7076 44.7829 70.7076 45.0988ZM52.7634 44.4957C52.8779 44.2659 52.9924 44.0935 53.0782 43.9212C53.9941 42.0829 54.8812 40.2159 55.8257 38.3777C55.9974 38.0617 56.3122 37.7171 56.6556 37.5734C61.0916 35.6203 63.4383 30.4214 61.9501 25.7683C60.4333 21.0003 55.5681 18.0993 50.7887 19.1333C46.6676 19.995 43.4909 23.3843 43.0902 27.3481C42.6037 31.8576 44.7787 35.7352 48.7568 37.5734C49.0143 37.6883 49.2719 37.9756 49.415 38.2341C50.4453 40.1298 51.447 42.0542 52.4486 43.9499C52.5345 44.151 52.649 44.2946 52.7634 44.4957Z" fill="#ffffff"/>
<mask id="path-3-inside-1_1_16" fill="#ffffff">
<path fill-rule="evenodd" clip-rule="evenodd" d="M52.6618 44.3834C52.6884 44.4259 52.7154 44.4701 52.7423 44.5174C52.7944 44.4129 52.8465 44.3202 52.8959 44.234C52.8963 44.2333 52.8967 44.2326 52.8971 44.2319C52.8982 44.23 52.8993 44.2281 52.9004 44.2262L52.922 44.1886C52.9422 44.1535 52.9618 44.1193 52.9808 44.0857C52.9811 44.0851 52.9814 44.0846 52.9817 44.084C53.0086 44.0362 53.0339 43.9896 53.0571 43.943C53.1091 43.8387 53.161 43.7343 53.2128 43.6298C53.231 43.5929 53.2493 43.556 53.2676 43.5191C53.3358 43.3812 53.4039 43.2432 53.472 43.1051C53.6744 42.6942 53.876 42.2823 54.0778 41.87L54.0781 41.8695L54.0784 41.8689L54.0785 41.8685C54.6455 40.7103 55.2138 39.5492 55.8046 38.3994C55.9763 38.0835 56.2911 37.7388 56.6345 37.5952C61.0705 35.642 63.4172 30.4432 61.929 25.7901C60.4122 21.022 55.547 18.121 50.7676 19.1551C46.6465 20.0167 43.4697 23.4061 43.0691 27.3698C42.5826 31.8793 44.7576 35.7569 48.7357 37.5952C48.9932 37.7101 49.2508 37.9973 49.3939 38.2558C50.1595 39.6646 50.9094 41.0892 51.6552 42.5062C51.7638 42.7126 51.8724 42.9188 51.9809 43.1248C52.046 43.2485 52.1111 43.372 52.1762 43.4955C52.2413 43.619 52.3065 43.7425 52.3716 43.8658C52.3717 43.866 52.3718 43.8662 52.3719 43.8663C52.3847 43.8905 52.3974 43.9148 52.4102 43.939C52.4103 43.9392 52.4105 43.9394 52.4106 43.9396C52.4162 43.9503 52.4219 43.961 52.4275 43.9717C52.4825 44.1006 52.5493 44.2058 52.6203 44.3178L52.6618 44.3834ZM52.7063 41.6515C52.7675 41.5265 52.8288 41.4012 52.8902 41.2758L52.893 41.2701C53.4581 40.1156 54.0313 38.9447 54.628 37.7831L54.6352 37.7693L54.6426 37.7556C54.9078 37.2676 55.4157 36.6616 56.1133 36.3646C59.9243 34.6812 61.9439 30.1914 60.6678 26.2013L60.6671 26.1994C59.3527 22.0674 55.1402 19.5777 51.0453 20.4637L51.0408 20.4646L51.0364 20.4656C47.4299 21.2197 44.7244 24.174 44.3876 27.5057L44.3872 27.5102L44.3867 27.5148C43.9611 31.4598 45.8361 34.7807 49.2815 36.3756C49.8886 36.6503 50.3273 37.1989 50.5509 37.6028L50.5534 37.6074L50.5558 37.6119C51.2854 38.9543 52 40.3097 52.7063 41.6515Z"/>
</mask>
<path fill-rule="evenodd" clip-rule="evenodd" d="M52.6618 44.3834C52.6884 44.4259 52.7154 44.4701 52.7423 44.5174C52.7944 44.4129 52.8465 44.3202 52.8959 44.234C52.8963 44.2333 52.8967 44.2326 52.8971 44.2319C52.8982 44.23 52.8993 44.2281 52.9004 44.2262L52.922 44.1886C52.9422 44.1535 52.9618 44.1193 52.9808 44.0857C52.9811 44.0851 52.9814 44.0846 52.9817 44.084C53.0086 44.0362 53.0339 43.9896 53.0571 43.943C53.1091 43.8387 53.161 43.7343 53.2128 43.6298C53.231 43.5929 53.2493 43.556 53.2676 43.5191C53.3358 43.3812 53.4039 43.2432 53.472 43.1051C53.6744 42.6942 53.876 42.2823 54.0778 41.87L54.0781 41.8695L54.0784 41.8689L54.0785 41.8685C54.6455 40.7103 55.2138 39.5492 55.8046 38.3994C55.9763 38.0835 56.2911 37.7388 56.6345 37.5952C61.0705 35.642 63.4172 30.4432 61.929 25.7901C60.4122 21.022 55.547 18.121 50.7676 19.1551C46.6465 20.0167 43.4697 23.4061 43.0691 27.3698C42.5826 31.8793 44.7576 35.7569 48.7357 37.5952C48.9932 37.7101 49.2508 37.9973 49.3939 38.2558C50.1595 39.6646 50.9094 41.0892 51.6552 42.5062C51.7638 42.7126 51.8724 42.9188 51.9809 43.1248C52.046 43.2485 52.1111 43.372 52.1762 43.4955C52.2413 43.619 52.3065 43.7425 52.3716 43.8658C52.3717 43.866 52.3718 43.8662 52.3719 43.8663C52.3847 43.8905 52.3974 43.9148 52.4102 43.939C52.4103 43.9392 52.4105 43.9394 52.4106 43.9396C52.4162 43.9503 52.4219 43.961 52.4275 43.9717C52.4825 44.1006 52.5493 44.2058 52.6203 44.3178L52.6618 44.3834ZM52.7063 41.6515C52.7675 41.5265 52.8288 41.4012 52.8902 41.2758L52.893 41.2701C53.4581 40.1156 54.0313 38.9447 54.628 37.7831L54.6352 37.7693L54.6426 37.7556C54.9078 37.2676 55.4157 36.6616 56.1133 36.3646C59.9243 34.6812 61.9439 30.1914 60.6678 26.2013L60.6671 26.1994C59.3527 22.0674 55.1402 19.5777 51.0453 20.4637L51.0408 20.4646L51.0364 20.4656C47.4299 21.2197 44.7244 24.174 44.3876 27.5057L44.3872 27.5102L44.3867 27.5148C43.9611 31.4598 45.8361 34.7807 49.2815 36.3756C49.8886 36.6503 50.3273 37.1989 50.5509 37.6028L50.5534 37.6074L50.5558 37.6119C51.2854 38.9543 52 40.3097 52.7063 41.6515Z" fill="#fabe12"/>
<path d="M52.6207 44.3183L54.3095 43.247L54.3093 43.2466L52.6207 44.3183ZM54.3572 43.3224C54.3396 43.2943 54.3225 43.2674 54.3095 43.247L50.9318 45.3896C50.946 45.4119 50.9564 45.4284 50.9664 45.4444L54.3572 43.3224ZM54.3093 43.2466L54.309 43.246L50.9317 45.3895L50.9321 45.39L54.3093 43.2466ZM52.6618 44.3834L56.0525 42.2613L56.0482 42.2544L56.0438 42.2476L52.6618 44.3834ZM52.7423 44.5174L49.2663 46.4966L52.9778 53.0152L56.3226 46.3011L52.7423 44.5174ZM52.8959 44.234L49.4266 42.2431L49.4255 42.245L52.8959 44.234ZM52.8971 44.2319L49.4266 42.243L49.4265 42.2433L52.8971 44.2319ZM52.9004 44.2262L49.4323 42.2331L49.4314 42.2347L52.9004 44.2262ZM52.922 44.1886L49.4547 42.194L49.4538 42.1956L52.922 44.1886ZM52.9808 44.0857L56.4669 46.047L56.4684 46.0443L52.9808 44.0857ZM52.9817 44.084L49.495 42.1238L49.494 42.1254L52.9817 44.084ZM53.0571 43.943L56.6374 45.7267L56.6374 45.7266L53.0571 43.943ZM53.2128 43.6298L56.7965 45.4065L56.7965 45.4064L53.2128 43.6298ZM53.2676 43.5191L49.6827 41.7447L49.6827 41.7447L53.2676 43.5191ZM53.472 43.1051L57.0603 44.8726L57.0603 44.8726L53.472 43.1051ZM54.0778 41.87L50.4932 40.095L50.4892 40.1032L50.4851 40.1114L54.0778 41.87ZM54.0781 41.8695L57.6627 43.6445L57.6667 43.6364L57.6707 43.6283L54.0781 41.8695ZM54.0784 41.8689L50.4938 40.0938L50.4898 40.102L50.4858 40.1101L54.0784 41.8689ZM54.0785 41.8685L57.6631 43.6435L57.6672 43.6354L57.6712 43.6271L54.0785 41.8685ZM55.8046 38.3994L52.2901 36.4894L52.2679 36.5302L52.2466 36.5715L55.8046 38.3994ZM56.6345 37.5952L58.1777 41.2855L58.2122 41.2711L58.2464 41.256L56.6345 37.5952ZM61.929 25.7901L58.1173 27.0027L58.1191 27.0086L61.929 25.7901ZM50.7676 19.1551L51.5863 23.0704L51.5999 23.0675L51.6134 23.0646L50.7676 19.1551ZM43.0691 27.3698L47.046 27.7989L47.0474 27.7855L47.0488 27.7721L43.0691 27.3698ZM48.7357 37.5952L47.0577 41.2262L47.0819 41.2374L47.1062 41.2482L48.7357 37.5952ZM49.3939 38.2558L52.9084 36.3457L52.901 36.3322L52.8935 36.3186L49.3939 38.2558ZM51.6552 42.5062L55.1948 40.6431L55.1948 40.6431L51.6552 42.5062ZM51.9809 43.1248L48.4417 44.9889L48.4417 44.9889L51.9809 43.1248ZM52.1762 43.4955L55.7145 41.6299L55.7145 41.6299L52.1762 43.4955ZM52.3716 43.8658L55.9108 42.002L55.9087 41.9979L52.3716 43.8658ZM52.3719 43.8663L48.8326 45.7301L48.8348 45.7342L52.3719 43.8663ZM52.4102 43.939L48.8735 45.8075L48.8736 45.8077L52.4102 43.939ZM52.4106 43.9396L55.9473 42.071L55.9472 42.0709L52.4106 43.9396ZM52.4275 43.9717L56.1061 42.4008L56.0413 42.2488L55.9641 42.1028L52.4275 43.9717ZM52.6203 44.3178L56.0024 42.1819L55.9979 42.1749L52.6203 44.3178ZM52.8902 41.2758L49.2976 39.5171L49.2975 39.5172L52.8902 41.2758ZM52.7063 41.6515L49.1667 43.5146L52.8347 50.483L56.2985 43.4109L52.7063 41.6515ZM52.893 41.2701L56.4856 43.0289L56.4857 43.0287L52.893 41.2701ZM54.628 37.7831L51.0703 35.955L51.0701 35.9552L54.628 37.7831ZM54.6352 37.7693L51.1206 35.8594L51.0985 35.9L51.0774 35.9411L54.6352 37.7693ZM54.6426 37.7556L51.1281 35.8455L51.128 35.8457L54.6426 37.7556ZM56.1133 36.3646L57.68 40.0451L57.7048 40.0345L57.7296 40.0236L56.1133 36.3646ZM60.6678 26.2013L64.4776 24.9828L64.4773 24.9817L60.6678 26.2013ZM60.6671 26.1994L56.8553 27.412L56.8576 27.419L60.6671 26.1994ZM51.0453 20.4637L50.1995 16.5541L50.1994 16.5541L51.0453 20.4637ZM51.0408 20.4646L51.8595 24.38L51.8731 24.3771L51.8867 24.3742L51.0408 20.4646ZM51.0364 20.4656L51.855 24.3809L51.855 24.3809L51.0364 20.4656ZM44.3876 27.5057L40.4079 27.1034L40.4079 27.1035L44.3876 27.5057ZM44.3872 27.5102L48.3641 27.9394L48.3656 27.9259L48.3669 27.9124L44.3872 27.5102ZM44.3867 27.5148L40.4098 27.0856L40.4098 27.0857L44.3867 27.5148ZM49.2815 36.3756L47.6012 40.0055L47.6167 40.0127L47.6324 40.0198L49.2815 36.3756ZM50.5509 37.6028L54.0506 35.6658L54.0505 35.6656L50.5509 37.6028ZM50.5534 37.6074L54.0678 35.6972L54.0605 35.6838L54.0531 35.6704L50.5534 37.6074ZM50.5558 37.6119L54.0703 35.7019L54.0703 35.7018L50.5558 37.6119ZM49.2711 46.5055C49.2764 46.514 49.2777 46.5162 49.2768 46.5146C49.2757 46.5128 49.2719 46.5064 49.2663 46.4966L56.2184 42.5383C56.1537 42.4246 56.0949 42.3291 56.0525 42.2613L49.2711 46.5055ZM56.3226 46.3011C56.3217 46.3028 56.3275 46.2908 56.3663 46.2231L49.4255 42.245C49.3655 42.3496 49.2671 42.5229 49.162 42.7338L56.3226 46.3011ZM56.3652 46.225C56.3662 46.2232 56.3671 46.2217 56.3675 46.221C56.3676 46.2209 56.3677 46.2207 56.3677 46.2206C56.3678 46.2204 56.3678 46.2204 56.3678 46.2204C56.3679 46.2202 56.3678 46.2204 56.3677 46.2205L49.4265 42.2433L49.4266 42.2431L56.3652 46.225ZM56.3676 46.2208C56.3683 46.2196 56.3689 46.2186 56.3694 46.2176L49.4314 42.2347C49.4297 42.2376 49.4281 42.2403 49.4266 42.243L56.3676 46.2208ZM56.3685 46.2192L56.3901 46.1817L49.4538 42.1956L49.4323 42.2331L56.3685 46.2192ZM56.3892 46.1832C56.4076 46.1512 56.437 46.1002 56.4669 46.047L49.4946 42.1244C49.4867 42.1384 49.4768 42.1558 49.4547 42.194L56.3892 46.1832ZM56.4684 46.0443C56.4675 46.046 56.4667 46.0474 56.467 46.0468C56.467 46.0468 56.4681 46.0449 56.4694 46.0426L49.494 42.1254C49.495 42.1237 49.4958 42.1223 49.4955 42.1229C49.4955 42.1229 49.4943 42.1248 49.4931 42.1271L56.4684 46.0443ZM56.4685 46.0443C56.512 45.9667 56.5728 45.8562 56.6374 45.7267L49.4769 42.1592C49.4865 42.1399 49.4935 42.1266 49.4965 42.1211C49.4994 42.1158 49.4994 42.1158 49.495 42.1238L56.4685 46.0443ZM56.6374 45.7266C56.6907 45.6198 56.7437 45.513 56.7965 45.4065L49.629 41.8531C49.5782 41.9555 49.5275 42.0575 49.4768 42.1593L56.6374 45.7266ZM56.7965 45.4064C56.8152 45.3688 56.8338 45.3312 56.8525 45.2935L49.6827 41.7447C49.6648 41.7808 49.6469 41.817 49.629 41.8532L56.7965 45.4064ZM56.8525 45.2936C56.922 45.153 56.9913 45.0127 57.0603 44.8726L49.8837 41.3376C49.8166 41.4738 49.7496 41.6095 49.6827 41.7447L56.8525 45.2936ZM57.0603 44.8726C57.2652 44.4565 57.4691 44.0401 57.6705 43.6286L50.4851 40.1114C50.283 40.5244 50.0835 40.9319 49.8837 41.3376L57.0603 44.8726ZM57.6707 43.6283L57.671 43.6276L50.4858 40.1101L50.4855 40.1108L57.6707 43.6283ZM57.6712 43.6271C58.241 42.4631 58.7924 41.3369 59.3625 40.2273L52.2466 36.5715C51.6352 37.7616 51.05 38.9575 50.4859 40.1099L57.6712 43.6271ZM59.3191 40.3095C59.2199 40.4918 59.1109 40.6333 58.9887 40.756C58.8785 40.8666 58.6201 41.1005 58.1777 41.2855L55.0913 33.9049C53.6531 34.5063 52.7441 35.6539 52.2901 36.4894L59.3191 40.3095ZM58.2464 41.256C64.5613 38.4756 67.8486 31.1677 65.7389 24.5716L58.1191 27.0086C58.9859 29.7186 57.5796 32.8085 55.0226 33.9343L58.2464 41.256ZM65.7408 24.5774C63.6249 17.9263 56.7999 13.7574 49.9218 15.2455L51.6134 23.0646C54.2941 22.4846 57.1995 24.1178 58.1173 27.0027L65.7408 24.5774ZM49.949 15.2397C44.2541 16.4305 39.6787 21.1374 39.0894 26.9675L47.0488 27.7721C47.2608 25.6747 49.0389 23.603 51.5863 23.0704L49.949 15.2397ZM39.0922 26.9408C38.427 33.1057 41.4756 38.6467 47.0577 41.2262L50.4136 33.9641C48.0396 32.8671 46.7381 30.6529 47.046 27.7989L39.0922 26.9408ZM47.1062 41.2482C46.6126 41.0281 46.3323 40.7558 46.2311 40.651C46.1078 40.5234 45.9966 40.3779 45.8943 40.193L52.8935 36.3186C52.5084 35.6229 51.6969 34.5362 50.3651 33.9421L47.1062 41.2482ZM45.8794 40.1659C46.6302 41.5473 47.3676 42.9483 48.1155 44.3692L55.1948 40.6431C54.4511 39.2302 53.6889 37.7819 52.9084 36.3457L45.8794 40.1659ZM48.1155 44.3692C48.2241 44.5755 48.3329 44.7823 48.4417 44.9889L55.52 41.2608C55.4118 41.0553 55.3035 40.8496 55.1948 40.6431L48.1155 44.3692ZM48.4417 44.9889C48.5071 45.1129 48.5725 45.237 48.6379 45.3611L55.7145 41.6299C55.6497 41.507 55.5849 41.384 55.52 41.2608L48.4417 44.9889ZM48.6379 45.3611C48.7034 45.4853 48.7689 45.6095 48.8345 45.7338L55.9087 41.9979C55.844 41.8755 55.7793 41.7528 55.7145 41.6299L48.6379 45.3611ZM48.8324 45.7297L48.8326 45.7301L55.9111 42.0025L55.9108 42.002L48.8324 45.7297ZM48.8348 45.7342C48.8477 45.7587 48.8606 45.7831 48.8735 45.8075L55.947 42.0705C55.9343 42.0464 55.9216 42.0224 55.909 41.9985L48.8348 45.7342ZM48.8736 45.8077L48.8739 45.8083L55.9472 42.0709L55.9469 42.0702L48.8736 45.8077ZM48.8738 45.8082C48.8794 45.8186 48.8852 45.8297 48.891 45.8406L55.9641 42.1028C55.9585 42.0923 55.9531 42.0819 55.9473 42.071L48.8738 45.8082ZM48.7489 45.5426C48.9492 46.0118 49.1885 46.3752 49.2428 46.4606L55.9979 42.1749C55.9782 42.1437 55.9724 42.1345 55.9687 42.1285C55.9664 42.1248 55.9734 42.1361 55.9852 42.1566C56.011 42.2013 56.0573 42.2864 56.1061 42.4008L48.7489 45.5426ZM49.2383 46.4536L49.2798 46.5192L56.0438 42.2476L56.0024 42.1819L49.2383 46.4536ZM49.2975 39.5172C49.2361 39.6427 49.175 39.7675 49.114 39.892L56.2985 43.4109C56.36 43.2854 56.4215 43.1598 56.4829 43.0344L49.2975 39.5172ZM49.3004 39.5114L49.2976 39.5171L56.4828 43.0346L56.4856 43.0289L49.3004 39.5114ZM51.0701 35.9552C50.4527 37.1569 49.8627 38.3626 49.3003 39.5115L56.4857 43.0287C57.0536 41.8685 57.6098 40.7324 58.1859 39.611L51.0701 35.9552ZM51.0774 35.9411L51.0703 35.955L58.1858 39.6113L58.1929 39.5974L51.0774 35.9411ZM51.128 35.8457L51.1206 35.8594L58.1497 39.6792L58.1572 39.6655L51.128 35.8457ZM54.5467 32.6842C52.7674 33.4416 51.6727 34.8436 51.1281 35.8455L58.1571 39.6656C58.1208 39.7323 58.0925 39.7683 58.0573 39.8038C58.0213 39.8401 57.9043 39.9496 57.68 40.0451L54.5467 32.6842ZM56.8579 27.4198C57.5131 29.4687 56.4316 31.8512 54.4971 32.7057L57.7296 40.0236C63.417 37.5113 66.3746 30.914 64.4776 24.9828L56.8579 27.4198ZM56.8576 27.419L56.8582 27.421L64.4773 24.9817L64.4767 24.9797L56.8576 27.419ZM51.8911 24.3732C53.8896 23.9409 56.1407 25.1654 56.8554 27.412L64.4789 24.9867C62.5647 18.9695 56.3909 15.2146 50.1995 16.5541L51.8911 24.3732ZM51.8867 24.3742L51.8912 24.3732L50.1994 16.5541L50.195 16.5551L51.8867 24.3742ZM51.855 24.3809L51.8595 24.38L50.2222 16.5493L50.2177 16.5503L51.855 24.3809ZM48.3674 27.908C48.5159 26.4384 49.8267 24.805 51.855 24.3809L50.2177 16.5503C45.033 17.6343 40.9329 21.9097 40.4079 27.1034L48.3674 27.908ZM48.3669 27.9124L48.3674 27.9079L40.4079 27.1035L40.4075 27.108L48.3669 27.9124ZM48.3636 27.9439L48.3641 27.9394L40.4103 27.0811L40.4098 27.0856L48.3636 27.9439ZM50.9617 32.7456C49.1185 31.8924 48.1166 30.2336 48.3636 27.9438L40.4098 27.0857C39.8056 32.6859 42.5537 37.6691 47.6012 40.0055L50.9617 32.7456ZM54.0505 35.6656C53.5871 34.8285 52.6005 33.487 50.9306 32.7313L47.6324 40.0198C47.3658 39.8992 47.2237 39.7622 47.1771 39.7136C47.1288 39.6634 47.0926 39.6148 47.0512 39.54L54.0505 35.6656ZM54.0531 35.6704L54.0506 35.6658L47.0511 39.5398L47.0536 39.5444L54.0531 35.6704ZM54.0703 35.7018L54.0678 35.6972L47.0389 39.5175L47.0414 39.5221L54.0703 35.7018ZM56.2459 39.7883C55.5404 38.4482 54.8142 37.0707 54.0703 35.7019L47.0414 39.522C47.7565 40.8379 48.4596 42.1713 49.1667 43.5146L56.2459 39.7883ZM57.6624 43.645L57.6627 43.6445L50.4935 40.0945L50.4932 40.095L57.6624 43.645ZM57.663 43.6439L57.6631 43.6435L50.4939 40.0935L50.4938 40.0938L57.663 43.6439Z" fill="#ffffff" mask="url(#path-3-inside-1_1_16)"/>
<path d="M111.139 45.8297C110.769 45.8297 110.569 45.8297 110.369 45.8297C107.488 45.8297 104.607 45.8297 101.726 45.8297C101.298 45.8297 101.041 45.7137 100.756 45.3655C98.5307 42.3478 96.3056 39.3301 94.052 36.3414C93.9379 36.1673 93.7953 36.0223 93.6241 35.8191C93.4815 35.9932 93.3388 36.1673 93.2247 36.3124C90.9711 39.3301 88.7175 42.3478 86.4925 45.3945C86.2357 45.7137 86.0075 45.8588 85.5796 45.8588C82.6699 45.8297 79.7317 45.8588 76.822 45.8588C76.6508 45.8588 76.4797 45.8297 76.1373 45.8297C80.3307 40.5488 84.4386 35.3839 88.6034 30.161C84.0392 24.4158 79.5035 18.6996 74.8536 12.8383C75.196 12.8093 75.3956 12.7802 75.5953 12.7802C78.4765 12.7802 81.3577 12.7802 84.2389 12.7802C84.6953 12.7802 84.9806 12.9253 85.2373 13.3025C87.9188 16.8715 90.6003 20.4405 93.2818 24.0095C93.3674 24.1256 93.4815 24.2417 93.6241 24.4158C94.6511 23.052 95.6495 21.7463 96.6479 20.4115C98.4451 18.0322 100.242 15.6238 102.039 13.2445C102.211 13.0414 102.524 12.8093 102.753 12.8093C105.805 12.7802 108.886 12.7802 111.938 12.7802C112.024 12.7802 112.109 12.8093 112.28 12.8383C112.109 13.0704 111.995 13.2735 111.853 13.4476C107.545 18.8737 103.238 24.2997 98.93 29.6967C98.6733 30.0449 98.6448 30.219 98.93 30.5672C102.838 35.4419 106.718 40.3457 110.597 45.2204C110.826 45.3655 110.94 45.5396 111.139 45.8297Z" fill="#ffffff"/>
<path d="M116.024 45.8588C116.024 34.8133 116.024 23.8257 116.024 12.7802C118.789 12.7802 121.493 12.7802 124.258 12.7802C124.258 23.8257 124.258 34.8133 124.258 45.8588C121.493 45.8588 118.789 45.8588 116.024 45.8588Z" fill="#ffffff"/>
<path d="M132.873 16.0599H141.157V41.6958C141.157 43.9833 139.302 45.8377 137.015 45.8377C134.727 45.8377 132.873 43.9833 132.873 41.6958V16.0599Z" fill="#fabe12"/>
<path d="M170.773 0.334595C173.083 0.334595 174.955 2.20706 174.955 4.51687C174.955 6.82668 173.083 8.69915 170.773 8.69915L137.055 8.69914C134.746 8.69914 132.873 6.82667 132.873 4.51687C132.873 2.20706 134.746 0.334593 137.055 0.334593L170.773 0.334595Z" fill="#fabe12"/>
<path d="M156.193 16.0599C158.503 16.0599 160.375 17.9324 160.375 20.2422C160.375 22.552 158.503 24.4245 156.193 24.4245L137.055 24.4245C134.746 24.4245 132.873 22.552 132.873 20.2422C132.873 17.9324 134.746 16.0599 137.055 16.0599L156.193 16.0599Z" fill="#fabe12"/>
<path d="M139.5 41.99C139.5 43.3759 138.387 44.4994 137.015 44.4994C135.642 44.4994 134.53 43.3759 134.53 41.99C134.53 40.6042 135.642 39.4807 137.015 39.4807C138.387 39.4807 139.5 40.6042 139.5 41.99Z" fill="#000000"/>
</svg>